<svg xmlns="http://www.w3.org/2000/svg" viewBox="0 0 870.9 177.9" role="img" aria-label="ArcheLabs wordmark">
  <title>ArcheLabs wordmark</title>
  <desc>Text-only ArcheLabs wordmark, smoother modern version for formal use.</desc>
  <g fill-rule="evenodd">
    <path d="M36.000 146.400 L43.400 146.400 L56.850 109.925 L110.200 109.925 L123.575 146.400 L131.150 146.400 L87.950 30.000 L79.350 30.000 L36.000 146.400 Z M59.275 103.350 L74.200 62.875 C77.075 55.075 80.050 46.875 83.575 36.475 C87.150 46.875 90.050 55.075 92.950 62.875 L107.775 103.350 L59.275 103.350 Z" fill="#041427"/>
    <path d="M152.931 146.400 L159.806 146.400 L159.806 94.050 C159.806 79.200 169.906 69.825 183.181 69.825 C185.056 69.825 186.381 70.075 187.156 70.150 L187.156 63.350 C186.156 63.275 185.431 63.200 184.031 63.200 C172.631 63.200 163.481 69.125 159.731 78.500 L159.581 78.500 L159.581 63.900 L152.931 63.900 L152.931 146.400 Z" fill="#041427"/>
    <path d="M240.216 147.875 C257.541 147.875 270.766 136.175 273.716 119.525 L266.766 119.525 C263.716 132.800 254.116 141.475 240.216 141.475 C222.241 141.475 210.141 126.625 210.141 105.225 C210.141 83.675 222.241 68.825 240.216 68.825 C254.116 68.825 264.041 77.575 266.841 90.775 L273.716 90.775 C270.766 73.975 257.641 62.425 240.216 62.425 C218.341 62.425 203.266 80.375 203.266 105.225 C203.266 130.000 218.341 147.875 240.216 147.875 Z" fill="#041427"/>
    <path d="M305.978 94.450 C305.978 78.750 317.328 68.975 332.153 68.975 C346.853 68.975 356.603 78.425 356.603 93.825 L356.603 146.400 L363.403 146.400 L363.403 93.500 C363.403 74.200 350.453 62.575 333.028 62.575 C321.453 62.575 311.228 67.650 305.978 78.125 L305.978 30.000 L299.103 30.000 L299.103 146.400 L305.978 146.400 L305.978 94.450 Z" fill="#041427"/>
    <path d="M425.919 147.875 C442.619 147.875 456.844 137.425 460.444 121.700 L453.494 121.700 C450.294 133.675 439.119 141.475 425.919 141.475 C407.944 141.475 395.994 127.025 395.744 106.400 L461.844 106.400 L461.844 103.975 C461.844 80.075 447.319 62.425 425.594 62.425 C404.044 62.425 388.969 80.450 388.969 105.225 C388.969 129.925 403.569 147.875 425.919 147.875 Z M395.844 100.225 C397.169 81.475 409.044 68.825 425.594 68.825 C442.094 68.825 454.269 81.625 454.969 100.225 L395.844 100.225 Z" fill="#041427"/>
    <path d="M499.422 146.400 L565.372 146.400 L565.372 139.825 L506.622 139.825 L506.622 30.000 L499.422 30.000 L499.422 146.400 Z" fill="#1677FF"/>
    <path d="M613.712 147.650 C628.262 147.650 638.262 140.550 642.387 131.175 L642.637 131.175 L642.637 146.400 L649.337 146.400 L649.337 88.900 C649.337 73.575 636.537 62.575 618.887 62.575 C601.062 62.575 587.712 73.750 587.462 88.575 L594.438 88.575 C594.587 77.425 605.137 68.825 618.887 68.825 C632.637 68.825 642.637 77.425 642.637 88.900 L642.637 90.625 C642.637 97.325 634.262 98.425 619.188 100.375 C597.087 103.350 585.438 108.750 585.438 123.975 C585.438 140.000 598.637 147.650 613.712 147.650 Z M614.337 141.325 C601.938 141.325 592.387 135.300 592.387 124.300 C592.387 113.675 600.912 109.125 619.037 106.625 C631.137 104.925 638.887 103.675 642.637 100.375 L642.637 113.200 C642.637 130.850 630.912 141.325 614.337 141.325 Z" fill="#1677FF"/>
    <path d="M716.609 147.725 C737.634 147.725 752.709 130.850 752.709 105.150 C752.709 79.600 737.484 62.575 716.609 62.575 C702.634 62.575 690.684 71.000 686.859 82.875 L686.759 82.875 L686.759 30.000 L679.884 30.000 L679.884 146.400 L686.609 146.400 L686.609 127.650 L686.759 127.650 C690.984 139.525 702.634 147.725 716.609 147.725 Z M715.984 141.400 C698.184 141.400 686.384 127.325 686.384 105.150 C686.384 82.950 698.184 68.900 715.984 68.900 C733.109 68.900 745.834 82.500 745.834 105.150 C745.834 127.800 733.109 141.400 715.984 141.400 Z" fill="#1677FF"/>
    <path d="M804.819 147.725 C822.794 147.725 834.894 138.275 834.894 123.675 C834.894 112.425 827.619 107.025 813.419 103.750 L799.344 100.450 C788.644 97.950 782.719 93.975 782.719 85.850 C782.719 75.700 791.369 68.750 804.594 68.750 C818.019 68.750 825.744 76.000 826.769 88.575 L833.494 88.575 C832.544 72.250 821.469 62.575 804.594 62.575 C787.544 62.575 775.919 71.950 775.919 85.850 C775.919 97.100 783.494 103.200 798.019 106.625 L811.994 109.925 C822.169 112.325 828.019 115.700 828.019 123.825 C828.019 134.300 819.119 141.550 804.744 141.550 C790.119 141.550 781.694 133.975 780.919 121.700 L774.194 121.700 C774.969 138.050 786.844 147.725 804.819 147.725 Z" fill="#1677FF"/>
  </g>
</svg>
